<svg width="60" height="60" viewBox="0 0 60 60" fill="none" xmlns="http://www.w3.org/2000/svg">
<circle cx="30" cy="30" r="30" fill="white"/>
<path d="M29.998 28.5333C27.0992 27.7467 26.167 26.9333 26.167 25.6667C26.167 24.2133 27.4568 23.2 29.6149 23.2C31.888 23.2 32.7308 24.3333 32.8075 26H35.6297C35.5403 23.7067 34.1994 21.6 31.5305 20.92V18H27.6994V20.88C25.222 21.44 23.2299 23.12 23.2299 25.6933C23.2299 28.7733 25.669 30.3067 29.2318 31.2C32.4244 32 33.0629 33.1733 33.0629 34.4133C33.0629 35.3333 32.4371 36.8 29.6149 36.8C26.9843 36.8 25.9499 35.5733 25.8094 34H23C23.1532 36.92 25.2475 38.56 27.6994 39.1067V42H31.5305V39.1333C34.0206 38.64 36 37.1333 36 34.4C36 30.6133 32.8969 29.32 29.998 28.5333Z" fill="#28B446"/>
</svg>
