<svg width="20" height="16" viewBox="0 0 20 16" fill="none" xmlns="http://www.w3.org/2000/svg">
<path d="M1.62162 6.4C0.724324 6.4 0 7.11467 0 8C0 8.88533 0.724324 9.6 1.62162 9.6C2.51892 9.6 3.24324 8.88533 3.24324 8C3.24324 7.11467 2.51892 6.4 1.62162 6.4ZM1.62162 0C0.724324 0 0 0.714667 0 1.6C0 2.48533 0.724324 3.2 1.62162 3.2C2.51892 3.2 3.24324 2.48533 3.24324 1.6C3.24324 0.714667 2.51892 0 1.62162 0ZM1.62162 12.8C0.724324 12.8 0 13.5253 0 14.4C0 15.2747 0.735135 16 1.62162 16C2.50811 16 3.24324 15.2747 3.24324 14.4C3.24324 13.5253 2.51892 12.8 1.62162 12.8ZM4.86486 15.4667H20V13.3333H4.86486V15.4667ZM4.86486 9.06667H20V6.93333H4.86486V9.06667ZM4.86486 0.533333V2.66667H20V0.533333H4.86486Z" fill="white" fill-opacity="0.6"/>
</svg>
