<svg width="20" height="17" viewBox="0 0 20 17" fill="none" xmlns="http://www.w3.org/2000/svg">
<path d="M11.4286 0C6.69524 0 2.85714 3.80611 2.85714 8.5H0L3.70476 12.1739L3.77143 12.3061L7.61905 8.5H4.7619C4.7619 4.845 7.74286 1.88889 11.4286 1.88889C15.1143 1.88889 18.0952 4.845 18.0952 8.5C18.0952 12.155 15.1143 15.1111 11.4286 15.1111C9.59048 15.1111 7.92381 14.365 6.72381 13.1656L5.37143 14.5067C6.92381 16.0461 9.05714 17 11.4286 17C16.1619 17 20 13.1939 20 8.5C20 3.80611 16.1619 0 11.4286 0ZM10.4762 4.72222V9.44444L14.5524 11.8433L15.2381 10.7006L11.9048 8.73611V4.72222H10.4762Z" fill="white" fill-opacity="0.6"/>
</svg>
