<svg width="1106" height="351" viewBox="0 0 1106 351" fill="none" xmlns="http://www.w3.org/2000/svg">
<line x1="55.5" y1="63.8999" x2="1103.5" y2="63.8999" stroke="#E2E8F0" stroke-linecap="square" stroke-dasharray="1 4"/>
<line x1="55.5" y1="128.3" x2="1103.5" y2="128.3" stroke="#E2E8F0" stroke-linecap="square" stroke-dasharray="1 4"/>
<line x1="55.5" y1="192.7" x2="1103.5" y2="192.7" stroke="#E2E8F0" stroke-linecap="square" stroke-dasharray="1 4"/>
<line x1="55.5" y1="257.1" x2="1103.5" y2="257.1" stroke="#E2E8F0" stroke-linecap="square" stroke-dasharray="1 4"/>
<line x1="55.5" y1="321.5" x2="1103.5" y2="321.5" stroke="#E2E8F0" stroke-linecap="square"/>
<line x1="973.375" y1="0.5" x2="973.375" y2="321.5" stroke="#E2E8F0" stroke-linecap="square" stroke-dasharray="1 4"/>
<line x1="842.25" y1="0.5" x2="842.25" y2="321.5" stroke="#E2E8F0" stroke-linecap="square" stroke-dasharray="1 4"/>
<line x1="711.125" y1="0.5" x2="711.125" y2="321.5" stroke="#E2E8F0" stroke-linecap="square" stroke-dasharray="1 4"/>
<line x1="580" y1="0.5" x2="580" y2="321.5" stroke="#E2E8F0" stroke-linecap="square" stroke-dasharray="1 4"/>
<line x1="448.875" y1="0.5" x2="448.875" y2="321.5" stroke="#E2E8F0" stroke-linecap="square" stroke-dasharray="1 4"/>
<line x1="317.75" y1="0.5" x2="317.75" y2="321.5" stroke="#E2E8F0" stroke-linecap="square" stroke-dasharray="1 4"/>
<line x1="186.625" y1="0.5" x2="186.625" y2="321.5" stroke="#E2E8F0" stroke-linecap="square" stroke-dasharray="1 4"/>
<path d="M1104 114.595L1099.85 123.275L1095.71 95.2985L1091.56 77.6286L1087.42 75.3657L1083.27 147.999L1079.12 136.552L1074.98 139.999L1070.83 146.134L1066.68 145.718L1062.54 145.17L1058.39 153.806L1054.25 165.695L1050.1 147.99L1045.95 148.927L1041.81 155.141L1037.66 157.616L1033.51 154.31L1029.37 156.405L1025.22 153.524L1021.08 162.168L1016.93 163.521L1012.78 166.411L1008.64 174.278L1004.49 173.642L1000.34 173.775L996.198 175.525L992.051 183.648L987.905 194.644L983.759 195.352L979.613 193.389L975.466 189.456L971.32 173.819L967.174 178.566L963.028 184.718L958.881 183.383L954.735 180.218L950.589 184.992L946.443 193.318L942.296 197.084L938.15 200.39L934.004 203.457L929.858 207.789L925.711 213.048L921.565 207.179L917.419 208.655L913.273 200.381L909.126 202.22L904.98 202.458L900.834 199.303L896.688 199.152L892.542 197.906L888.395 198.242L884.249 203.988L880.103 207.656L875.957 201.999L871.81 197.058L867.664 156.927L863.518 166.332L859.372 161.408L855.225 161.647L851.079 157.89L846.933 149.899L842.787 154.558L838.64 154.072L834.494 163.592L830.348 166.906L826.202 167.083L822.055 166.747L817.909 174.499L813.763 163.017L809.617 166.694L805.47 162.027L801.324 160.392L797.178 161.629L793.032 172.917L788.885 174.906L784.739 174.738L780.593 173.766L776.447 179.14L772.3 175.321L768.154 184.939L764.008 187.308L759.862 187.705L755.715 186.433L751.569 191.338L747.423 190.614L743.277 191.595L739.13 190.667L734.984 190.172L730.838 185.381L726.692 187.396L722.545 180.112L718.399 180.316L714.253 180.802L710.107 178.38L705.961 177.699L701.814 179.706L697.668 182.19L693.522 192.717L689.376 189.031L685.229 185.611L681.083 189.438L676.937 181.182L672.791 180.599L668.644 165.943L664.498 159.844L660.352 149.82L656.206 150.253L652.059 154.31L647.913 149.546L643.767 160.188L639.621 166.738L635.474 162.204L631.328 164.166L627.182 157.943L623.036 159.676L618.889 157.183L614.743 157.077L610.597 140.565L606.451 123.991L602.304 153.736L598.158 155.61L594.012 166.27L589.866 164.246L585.719 169.373L581.573 183.843L577.427 182.322L573.281 190.428L569.134 195.086L564.988 185.637L560.842 189.314L556.696 205.128L552.549 202.255L548.403 221.817L544.257 212.261L540.111 211.466L535.964 215.001L531.818 205.234L527.672 203.908L523.526 203.042L519.379 206.684L515.233 208.328L511.087 211.713L506.941 213.349L502.795 206.745L498.648 205.508L494.502 211.643L490.356 207.709L486.209 211.183L482.063 228.455L477.917 226.988L473.771 218.511L469.625 226.882L465.478 227.633L461.332 229.613L457.186 234.545L453.04 239.699L448.893 246.54L444.747 248.609L440.601 252.056L436.455 248.794L432.308 254.284L428.162 254.602L424.016 251.535L419.87 260.144L415.723 256.264L411.577 246.523L407.431 243.279L403.285 254.381L399.138 255.097L394.992 252.348H390.846L386.7 240.627L382.553 232.945L378.407 234.554L374.261 232.981L370.115 239.31L365.968 231.292L361.822 229.374L357.676 233.723L353.53 235.385L349.383 238.452L345.237 241.272L341.091 232.689L336.945 237.993L332.798 233.785L328.652 237.604L324.506 234.996L320.36 238.143L316.213 244.11L312.067 254.991L307.921 251.756L303.775 249.811L299.629 253.921L295.482 260.878L291.336 273.766L287.19 269.761L283.044 266.031L278.897 265.289L274.751 262.557L270.605 259.543L266.459 233.962L262.312 218.175L258.166 216.946L254.02 208.496L249.874 175.224L245.727 183.79L241.581 195.325L237.435 195.564L233.289 196.96L229.142 191.895L224.996 207.046L220.85 204.35L216.704 210.219L212.557 213.587L208.411 212.933L204.265 214.754L200.119 209.601L195.972 209.539L191.826 217.768L187.68 208.036L183.534 211.236L179.387 217.68L175.241 220.632L171.095 222.639L166.949 230.02L162.802 228.04L158.656 228.508L154.51 232.256L150.364 237.118L146.217 236.357L142.071 230.479L137.925 237.507L133.779 241.422L129.632 255.486L125.486 260.162L121.34 270.919L117.194 263.636L113.047 255.839L108.901 261.665L104.755 254.08L100.609 261.947L96.4625 255.132L92.3162 258.253L88.17 257.837L84.0237 264.007L79.8775 241.007L75.7313 229.259L71.585 221.525L67.4388 232.548L63.2925 235.5L59.1463 224.362L55 226.639" stroke="#2182F5" stroke-width="3" stroke-linecap="round" stroke-linejoin="round"/>
<path d="M55 220.061L59.1462 213.017L63.2925 213.771L67.4387 213.605L71.585 214.764L75.7312 211.159L79.8775 209.872L84.0237 208.124L88.17 209.559L92.3162 213.918L96.4624 214.175L100.609 227.142L104.755 216.217L108.901 212.079L113.047 213.017L117.194 208.419L121.34 205.642L125.486 204.06L129.632 203.637L133.779 202.975L137.925 198.616L142.071 192.565L146.217 194.018L150.364 191.204L154.51 197.715L158.656 189.254L162.802 186.385L166.949 189.126L171.095 187.93L175.241 190.671L179.387 196.942L183.534 208.658L187.68 197.457L191.826 191.038L195.972 189.365L200.119 181.125L204.265 179.139L208.411 182.836L212.557 183.167L216.704 179.819L220.85 183.755L224.996 185.447L229.142 178.9L233.289 182.891L237.435 177.778L241.581 176.435L245.727 177.097L249.874 176.086L254.02 174.063L258.166 171.616L262.312 170.127L266.458 168.196L270.605 173.584L274.751 182.523L278.897 181.272L283.043 174.835L287.19 167.662L291.336 166.356L295.482 164.628L299.628 169.501L303.775 162.163L307.921 158.521L312.067 159.754L316.213 159.312L320.36 156.756L324.506 156.958L328.652 159.938L332.798 160.949L336.945 164.499L341.091 171.01L345.237 168.913L349.383 173.345L353.53 166.522L357.676 167.828L361.822 178.44L365.968 191.976L370.115 192.73L374.261 184.951L378.407 175.166L382.553 173.823L386.7 176.159L390.846 192.565L394.992 191.222L399.138 200.988L403.285 191.608L407.431 201.908L411.577 193.705L415.723 190.395L419.87 183.479L424.016 184.951L428.162 190.781L432.308 192.749L436.455 189.88L440.601 176.417L444.747 170.219L448.893 167.791L453.039 161.446L457.186 158.19L461.332 156.02L465.478 156.884L469.624 152.415L473.771 151.661L477.917 155.376L482.063 147.321L486.209 145.61L490.356 144.157L494.502 140.736L498.648 135.55L502.794 131.522L506.941 128.542L511.087 127.807L515.233 130.658L519.379 137.573L523.526 137.297L527.672 130.86L531.818 130.566L535.964 127.163L540.111 129.26L544.257 126.335L548.403 127.88L552.549 130.308L556.696 129.168L560.842 126.869L564.988 146.125L569.134 135.771L573.281 152.397L577.427 161.703L581.573 149.013L585.719 156.333L589.866 146.456L594.012 129.002L598.158 126.722L602.304 132.552L606.451 124.478L610.597 132.147L614.743 138.051L618.889 124.735L623.036 132.368L627.182 144.47L631.328 153.464L635.474 138.603L639.621 130.087L643.767 124.735L647.913 112.486L652.059 113.204L656.205 112.082L660.352 114.509L664.498 116.716L668.644 111.659L672.791 111.953L676.937 128.818L681.083 129.628L685.229 133.03L689.375 134.097L693.522 126.299L697.668 123.963L701.814 135.899L705.96 135.55L710.107 150.686L714.253 159.404L718.399 168.6L722.545 184.73L726.692 181.309L730.838 191.185L734.984 193.19L739.13 197.126L743.277 177.428L747.423 162.788L751.569 157.197L755.715 149.105L759.862 168.876L764.008 165.014L768.154 167.662L772.3 160.894L776.447 148.755L780.593 163.873L784.739 180.169L788.885 182.817L793.032 169.796L797.178 168.876L801.324 186.422L805.47 191.627L809.617 200.198L813.763 214.212L817.909 202.533L822.055 185.153L826.202 187.213L830.348 199.443L834.494 184.895L838.64 188.905L842.787 195.416L846.933 218.847L851.079 224.696L855.225 204.17L859.371 207.72L863.518 217.67L867.664 223.316L871.81 206.451L875.956 189.07L880.103 179.047L884.249 172.702L888.395 172.941L892.541 163.377L896.688 174.026L900.834 161.722L904.98 157.675L909.126 151.753L913.273 141.38L917.419 146.622L921.565 159.607L925.711 157.252L929.858 150.116L934.004 160.728L938.15 169.023L942.296 164.885L946.443 167.092L950.589 181.162L954.735 184.16L958.881 174.927L963.028 185.079L967.174 184.748L971.32 171.745L975.466 172.352L979.613 184.583L983.759 206.69L987.905 202.147L992.051 224.971L996.198 222.82L1000.34 203.435L1004.49 232.512L1008.64 227.951L1012.78 224.457L1016.93 201.136L1021.08 229.183L1025.22 233.726L1029.37 257.948L1033.51 256.256L1037.66 267.917L1041.81 268.671L1045.95 251.419L1050.1 254.417L1054.25 239.28L1058.39 269.554L1062.54 273.968L1066.68 273.655L1070.83 260.247L1074.98 265.82L1079.12 259.42L1083.27 244.816L1087.41 226.516L1091.56 230.802L1095.71 236.945L1099.85 222.599L1104 234.839" stroke="#28B446" stroke-width="3" stroke-linecap="round" stroke-linejoin="round"/>
<path d="M1104 191.174L1099.85 183.649L1095.71 184.454L1091.56 184.278L1087.42 185.515L1083.27 181.664L1079.12 180.289L1074.98 178.422L1070.83 179.955L1066.68 184.612L1062.54 184.887L1058.39 198.739L1054.25 187.068L1050.1 182.647L1045.95 183.649L1041.81 178.737L1037.66 175.77L1033.51 174.08L1029.37 173.628L1025.22 172.921L1021.08 168.264L1016.93 161.8L1012.78 163.352L1008.64 160.346L1004.49 167.301L1000.34 158.263L996.198 155.198L992.051 158.125L987.905 156.848L983.759 159.776L979.613 166.476L975.466 178.992L971.32 167.026L967.174 160.169L963.028 158.381L958.881 149.578L954.735 147.456L950.589 151.406L946.443 151.759L942.296 148.183L938.15 152.388L934.004 154.196L929.858 147.201L925.711 151.465L921.565 146.002L917.419 144.568L913.273 145.275L909.126 144.195L904.98 142.033L900.834 139.42L896.688 137.828L892.542 135.765L888.395 141.522L884.249 151.072L880.103 149.735L875.957 142.858L871.81 135.196L867.664 133.8L863.518 131.954L859.372 137.16L855.225 129.321L851.079 125.43L846.933 126.747L842.787 126.275L838.64 123.544L834.494 123.76L830.348 126.943L826.202 128.024L822.055 131.816L817.909 138.772L813.763 136.532L809.617 141.267L805.47 133.977L801.324 135.372L797.178 146.71L793.032 161.171L788.885 161.976L784.739 153.665L780.593 143.212L776.447 141.778L772.3 144.273L768.154 161.8L764.008 160.365L759.862 170.799L755.715 160.778L751.569 171.781L747.423 163.018L743.277 159.481L739.13 152.093L734.984 153.665L730.838 159.894L726.692 161.996L722.545 158.931L718.399 144.548L714.253 137.927L710.107 135.333L705.961 128.554L701.814 125.077L697.668 122.758L693.522 123.681L689.376 118.907L685.229 118.101L681.083 122.07L676.937 113.464L672.791 111.637L668.644 110.085L664.498 106.43L660.352 100.889L656.206 96.5861L652.059 93.4031L647.913 92.6171L643.767 95.6627L639.621 103.051L635.474 102.756L631.328 95.8788L627.182 95.5644L623.036 91.9294L618.889 94.1694L614.743 91.0453L610.597 92.6957L606.451 95.2893L602.304 94.0711L598.158 91.6151L594.012 112.187L589.866 101.125L585.719 118.887L581.573 128.829L577.427 115.272L573.281 123.092L569.134 112.541L564.988 93.8943L560.842 91.4579L556.696 97.6865L552.549 89.0608L548.403 97.2542L544.257 103.561L540.111 89.3358L535.964 97.49L531.818 110.419L527.672 120.027L523.526 104.151L519.379 95.0536L515.233 89.3358L511.087 76.2499L506.941 77.0162L502.795 75.8176L498.648 78.4112L494.502 80.7691L490.356 75.3657L486.209 75.6801L482.063 93.6978L477.917 94.5623L473.771 98.1973L469.625 99.3369L465.478 91.006L461.332 88.5106L457.186 101.262L453.04 100.889L448.893 117.06L444.747 126.373L440.601 136.198L436.455 153.429L432.308 149.775L428.162 160.326L424.016 162.468L419.87 166.672L415.723 145.629L411.577 129.989L407.431 124.016L403.285 115.37L399.138 136.492L394.992 132.366L390.846 135.196L386.7 127.965L382.553 114.997L378.407 131.148L374.261 148.557L370.115 151.386L365.968 137.475L361.822 136.492L357.676 155.237L353.53 160.798L349.383 169.954L345.237 184.926L341.091 172.449L336.945 153.881L332.798 156.082L328.652 169.148L324.506 153.606L320.36 157.89L316.213 164.845L312.067 189.877L307.921 196.126L303.775 174.198L299.629 177.99L295.482 188.62L291.336 194.652L287.19 176.634L283.044 158.066L278.897 147.358L274.751 140.579L270.605 140.835L266.459 130.617L262.312 141.994L258.166 128.849L254.02 124.526L249.874 118.2L245.727 107.118L241.581 112.718L237.435 126.589L233.289 124.074L229.142 116.451L224.996 127.788L220.85 136.65L216.704 132.229L212.557 134.586L208.411 149.618L204.265 152.82L200.119 142.957L195.972 153.803L191.826 153.449L187.68 139.558L183.534 140.206L179.387 153.272L175.241 176.89L171.095 172.037L166.949 196.42L162.802 194.122L158.656 173.412L154.51 204.476L150.364 199.603L146.217 195.87L142.071 170.956L137.925 200.92L133.779 205.773L129.632 231.65L125.486 229.843L121.34 242.3L117.194 243.105L113.047 224.675L108.901 227.878L104.755 211.707L100.609 244.048L96.4625 248.764L92.3162 248.43L88.17 234.106L84.0237 240.06L79.8775 233.222L75.7313 217.621L71.585 198.071L67.4388 202.649L63.2925 209.212L59.1463 193.886L55 206.962" stroke="#FBBB00" stroke-width="3" stroke-linecap="round" stroke-linejoin="round"/>
<path d="M2.7065 12H4.1785V0.431999H1.1705V1.76H2.7065V12ZM5.6555 14.288H6.6315L8.4235 9.984H6.8235L5.6555 14.288ZM9.85138 6.096C9.85138 9.456 10.6834 12 13.8834 12C17.0674 12 17.8994 9.456 17.8994 6.096C17.8994 2.784 17.0674 0.256 13.8834 0.256C10.6834 0.256 9.85138 2.784 9.85138 6.096ZM16.4594 6.096C16.4594 8.592 16.1554 10.672 13.8834 10.672C11.5954 10.672 11.2914 8.592 11.2914 6.096C11.2914 3.696 11.5954 1.584 13.8834 1.584C16.1554 1.584 16.4594 3.696 16.4594 6.096ZM19.8983 6.096C19.8983 9.456 20.7303 12 23.9303 12C27.1143 12 27.9462 9.456 27.9462 6.096C27.9462 2.784 27.1143 0.256 23.9303 0.256C20.7303 0.256 19.8983 2.784 19.8983 6.096ZM26.5063 6.096C26.5063 8.592 26.2023 10.672 23.9303 10.672C21.6423 10.672 21.3383 8.592 21.3383 6.096C21.3383 3.696 21.6423 1.584 23.9303 1.584C26.2023 1.584 26.5063 3.696 26.5063 6.096ZM29.9451 6.096C29.9451 9.456 30.7771 12 33.9771 12C37.1611 12 37.9931 9.456 37.9931 6.096C37.9931 2.784 37.1611 0.256 33.9771 0.256C30.7771 0.256 29.9451 2.784 29.9451 6.096ZM36.5531 6.096C36.5531 8.592 36.2491 10.672 33.9771 10.672C31.6891 10.672 31.3851 8.592 31.3851 6.096C31.3851 3.696 31.6891 1.584 33.9771 1.584C36.2491 1.584 36.5531 3.696 36.5531 6.096Z" fill="#64748B"/>
<path d="M11.9165 67.984C10.6205 68.368 9.7725 69.424 9.7725 70.88C9.7725 72.976 11.4205 74.32 13.8525 74.32C16.3005 74.32 17.9645 72.976 17.9645 70.88C17.9645 69.44 17.1165 68.384 15.8045 67.984C16.9405 67.536 17.6605 66.576 17.6605 65.328C17.6605 63.648 16.3645 62.256 13.8525 62.256C11.3405 62.256 10.0605 63.632 10.0605 65.328C10.0605 66.624 10.7325 67.52 11.9165 67.984ZM13.8525 67.504C12.4445 67.504 11.4685 66.72 11.4685 65.52C11.4685 64.16 12.4285 63.472 13.8525 63.472C15.3085 63.472 16.2525 64.176 16.2525 65.504C16.2525 66.704 15.2765 67.504 13.8525 67.504ZM13.8525 68.624C15.3725 68.624 16.5245 69.344 16.5245 70.832C16.5245 72.176 15.5005 73.104 13.8525 73.104C12.2045 73.104 11.1645 72.192 11.1645 70.832C11.1645 69.296 12.3645 68.624 13.8525 68.624ZM19.8983 68.096C19.8983 71.456 20.7303 74 23.9303 74C27.1143 74 27.9462 71.456 27.9462 68.096C27.9462 64.784 27.1143 62.256 23.9303 62.256C20.7303 62.256 19.8983 64.784 19.8983 68.096ZM26.5063 68.096C26.5063 70.592 26.2023 72.672 23.9303 72.672C21.6423 72.672 21.3383 70.592 21.3383 68.096C21.3383 65.696 21.6423 63.584 23.9303 63.584C26.2023 63.584 26.5063 65.696 26.5063 68.096ZM29.9451 68.096C29.9451 71.456 30.7771 74 33.9771 74C37.1611 74 37.9931 71.456 37.9931 68.096C37.9931 64.784 37.1611 62.256 33.9771 62.256C30.7771 62.256 29.9451 64.784 29.9451 68.096ZM36.5531 68.096C36.5531 70.592 36.2491 72.672 33.9771 72.672C31.6891 72.672 31.3851 70.592 31.3851 68.096C31.3851 65.696 31.6891 63.584 33.9771 63.584C36.2491 63.584 36.5531 65.696 36.5531 68.096Z" fill="#64748B"/>
<path d="M17.534 127.184C17.342 125.568 16.222 124.192 14.014 124.192C11.086 124.192 9.918 126.432 9.918 130.064C9.918 133.568 10.734 136.032 14.158 136.032C16.686 136.032 17.934 134.304 17.934 132.192C17.934 129.76 16.478 128.336 14.318 128.336C12.942 128.336 11.678 128.976 11.182 130.112C11.166 126.672 12.158 125.408 13.998 125.408C15.31 125.408 15.966 126.064 16.19 127.184H17.534ZM14.014 129.568C15.678 129.568 16.526 130.608 16.526 132.24C16.526 133.808 15.582 134.816 14.078 134.816C12.254 134.816 11.358 133.616 11.358 132.08C11.358 130.352 12.686 129.568 14.014 129.568ZM19.8983 130.096C19.8983 133.456 20.7303 136 23.9303 136C27.1143 136 27.9462 133.456 27.9462 130.096C27.9462 126.784 27.1143 124.256 23.9303 124.256C20.7303 124.256 19.8983 126.784 19.8983 130.096ZM26.5063 130.096C26.5063 132.592 26.2023 134.672 23.9303 134.672C21.6423 134.672 21.3383 132.592 21.3383 130.096C21.3383 127.696 21.6423 125.584 23.9303 125.584C26.2023 125.584 26.5063 127.696 26.5063 130.096ZM29.9451 130.096C29.9451 133.456 30.7771 136 33.9771 136C37.1611 136 37.9931 133.456 37.9931 130.096C37.9931 126.784 37.1611 124.256 33.9771 124.256C30.7771 124.256 29.9451 126.784 29.9451 130.096ZM36.5531 130.096C36.5531 132.592 36.2491 134.672 33.9771 134.672C31.6891 134.672 31.3851 132.592 31.3851 130.096C31.3851 127.696 31.6891 125.584 33.9771 125.584C36.2491 125.584 36.5531 127.696 36.5531 130.096Z" fill="#64748B"/>
<path d="M15.4038 198H16.8438V195.424H18.4438V194.16H16.8438V186.544H15.0998L9.48375 194.32V195.424H15.4038V198ZM11.1638 194.16L15.4678 188.064V194.16H11.1638ZM19.8983 192.096C19.8983 195.456 20.7303 198 23.9303 198C27.1143 198 27.9462 195.456 27.9462 192.096C27.9462 188.784 27.1143 186.256 23.9303 186.256C20.7303 186.256 19.8983 188.784 19.8983 192.096ZM26.5063 192.096C26.5063 194.592 26.2023 196.672 23.9303 196.672C21.6423 196.672 21.3383 194.592 21.3383 192.096C21.3383 189.696 21.6423 187.584 23.9303 187.584C26.2023 187.584 26.5063 189.696 26.5063 192.096ZM29.9451 192.096C29.9451 195.456 30.7771 198 33.9771 198C37.1611 198 37.9931 195.456 37.9931 192.096C37.9931 188.784 37.1611 186.256 33.9771 186.256C30.7771 186.256 29.9451 188.784 29.9451 192.096ZM36.5531 192.096C36.5531 194.592 36.2491 196.672 33.9771 196.672C31.6891 196.672 31.3851 194.592 31.3851 192.096C31.3851 189.696 31.6891 187.584 33.9771 187.584C36.2491 187.584 36.5531 189.696 36.5531 192.096Z" fill="#64748B"/>
<path d="M10.5191 259.872H18.2151V258.656H12.7111C14.7751 256.976 17.8791 254.528 17.8791 251.648C17.8791 249.504 16.4711 248.224 14.2951 248.224C12.2151 248.224 10.6631 249.504 10.5671 251.968H11.9751C12.0391 250.512 12.8071 249.472 14.3111 249.472C15.8791 249.472 16.4391 250.432 16.4391 251.712C16.4391 254.08 13.5591 256.384 10.5191 258.832V259.872ZM19.8983 254.096C19.8983 257.456 20.7303 260 23.9303 260C27.1143 260 27.9462 257.456 27.9462 254.096C27.9462 250.784 27.1143 248.256 23.9303 248.256C20.7303 248.256 19.8983 250.784 19.8983 254.096ZM26.5063 254.096C26.5063 256.592 26.2023 258.672 23.9303 258.672C21.6423 258.672 21.3383 256.592 21.3383 254.096C21.3383 251.696 21.6423 249.584 23.9303 249.584C26.2023 249.584 26.5063 251.696 26.5063 254.096ZM29.9451 254.096C29.9451 257.456 30.7771 260 33.9771 260C37.1611 260 37.9931 257.456 37.9931 254.096C37.9931 250.784 37.1611 248.256 33.9771 248.256C30.7771 248.256 29.9451 250.784 29.9451 254.096ZM36.5531 254.096C36.5531 256.592 36.2491 258.672 33.9771 258.672C31.6891 258.672 31.3851 256.592 31.3851 254.096C31.3851 251.696 31.6891 249.584 33.9771 249.584C36.2491 249.584 36.5531 251.696 36.5531 254.096Z" fill="#64748B"/>
<path d="M29.9451 316.096C29.9451 319.456 30.7771 322 33.9771 322C37.1611 322 37.9931 319.456 37.9931 316.096C37.9931 312.784 37.1611 310.256 33.9771 310.256C30.7771 310.256 29.9451 312.784 29.9451 316.096ZM36.5531 316.096C36.5531 318.592 36.2491 320.672 33.9771 320.672C31.6891 320.672 31.3851 318.592 31.3851 316.096C31.3851 313.696 31.6891 311.584 33.9771 311.584C36.2491 311.584 36.5531 313.696 36.5531 316.096Z" fill="#64748B"/>
<path d="M56.2613 349.872H63.9573V348.656H58.4533C60.5173 346.976 63.6213 344.528 63.6213 341.648C63.6213 339.504 62.2133 338.224 60.0373 338.224C57.9573 338.224 56.4053 339.504 56.3093 341.968H57.7173C57.7813 340.512 58.5493 339.472 60.0533 339.472C61.6213 339.472 62.1813 340.432 62.1813 341.712C62.1813 344.08 59.3013 346.384 56.2613 348.832V349.872ZM65.6404 344.096C65.6404 347.456 66.4724 350 69.6724 350C72.8564 350 73.6884 347.456 73.6884 344.096C73.6884 340.784 72.8564 338.256 69.6724 338.256C66.4724 338.256 65.6404 340.784 65.6404 344.096ZM72.2484 344.096C72.2484 346.592 71.9444 348.672 69.6724 348.672C67.3844 348.672 67.0804 346.592 67.0804 344.096C67.0804 341.696 67.3844 339.584 69.6724 339.584C71.9444 339.584 72.2484 341.696 72.2484 344.096ZM76.8393 350H78.3113V338.432H75.3033V339.76H76.8393V350ZM80.3483 338.464V339.712H86.5243L82.0123 350H83.4843L87.9323 339.568V338.464H80.3483Z" fill="#64748B"/>
<path d="M223.082 349.872H230.778V348.656H225.274C227.338 346.976 230.442 344.528 230.442 341.648C230.442 339.504 229.034 338.224 226.858 338.224C224.778 338.224 223.226 339.504 223.13 341.968H224.538C224.602 340.512 225.37 339.472 226.874 339.472C228.442 339.472 229.002 340.432 229.002 341.712C229.002 344.08 226.122 346.384 223.082 348.832V349.872ZM232.461 344.096C232.461 347.456 233.293 350 236.493 350C239.677 350 240.509 347.456 240.509 344.096C240.509 340.784 239.677 338.256 236.493 338.256C233.293 338.256 232.461 340.784 232.461 344.096ZM239.069 344.096C239.069 346.592 238.765 348.672 236.493 348.672C234.205 348.672 233.901 346.592 233.901 344.096C233.901 341.696 234.205 339.584 236.493 339.584C238.765 339.584 239.069 341.696 239.069 344.096ZM243.66 350H245.132V338.432H242.124V339.76H243.66V350ZM249.745 343.984C248.449 344.368 247.601 345.424 247.601 346.88C247.601 348.976 249.249 350.32 251.681 350.32C254.129 350.32 255.793 348.976 255.793 346.88C255.793 345.44 254.945 344.384 253.633 343.984C254.769 343.536 255.489 342.576 255.489 341.328C255.489 339.648 254.193 338.256 251.681 338.256C249.169 338.256 247.889 339.632 247.889 341.328C247.889 342.624 248.561 343.52 249.745 343.984ZM251.681 343.504C250.273 343.504 249.297 342.72 249.297 341.52C249.297 340.16 250.257 339.472 251.681 339.472C253.137 339.472 254.081 340.176 254.081 341.504C254.081 342.704 253.105 343.504 251.681 343.504ZM251.681 344.624C253.201 344.624 254.353 345.344 254.353 346.832C254.353 348.176 253.329 349.104 251.681 349.104C250.033 349.104 248.993 348.192 248.993 346.832C248.993 345.296 250.193 344.624 251.681 344.624Z" fill="#64748B"/>
<path d="M391.089 349.872H398.785V348.656H393.281C395.345 346.976 398.449 344.528 398.449 341.648C398.449 339.504 397.041 338.224 394.865 338.224C392.785 338.224 391.233 339.504 391.137 341.968H392.545C392.609 340.512 393.377 339.472 394.881 339.472C396.449 339.472 397.009 340.432 397.009 341.712C397.009 344.08 394.129 346.384 391.089 348.832V349.872ZM400.469 344.096C400.469 347.456 401.301 350 404.501 350C407.685 350 408.517 347.456 408.517 344.096C408.517 340.784 407.685 338.256 404.501 338.256C401.301 338.256 400.469 340.784 400.469 344.096ZM407.077 344.096C407.077 346.592 406.773 348.672 404.501 348.672C402.213 348.672 401.909 346.592 401.909 344.096C401.909 341.696 402.213 339.584 404.501 339.584C406.773 339.584 407.077 341.696 407.077 344.096ZM411.667 350H413.139V338.432H410.131V339.76H411.667V350ZM416.168 346.896C416.328 348.592 417.448 350.016 419.752 350.016C422.792 350.016 423.672 347.856 423.672 344C423.672 340.416 422.76 338.208 419.624 338.208C417.128 338.208 415.816 339.808 415.816 342.016C415.816 344.464 417.4 345.792 419.528 345.792C420.776 345.792 421.928 345.232 422.392 344.256C422.44 347.648 421.528 348.8 419.832 348.8C418.488 348.8 417.72 348.096 417.512 346.896H416.168ZM419.768 344.56C418.04 344.56 417.208 343.472 417.208 341.984C417.208 340.448 418.152 339.424 419.656 339.424C421.32 339.424 422.216 340.528 422.216 342.096C422.216 343.648 421.16 344.56 419.768 344.56Z" fill="#64748B"/>
<path d="M559.066 349.872H566.762V348.656H561.258C563.322 346.976 566.426 344.528 566.426 341.648C566.426 339.504 565.018 338.224 562.842 338.224C560.762 338.224 559.21 339.504 559.114 341.968H560.522C560.586 340.512 561.354 339.472 562.858 339.472C564.426 339.472 564.986 340.432 564.986 341.712C564.986 344.08 562.106 346.384 559.066 348.832V349.872ZM568.445 344.096C568.445 347.456 569.277 350 572.477 350C575.661 350 576.493 347.456 576.493 344.096C576.493 340.784 575.661 338.256 572.477 338.256C569.277 338.256 568.445 340.784 568.445 344.096ZM575.053 344.096C575.053 346.592 574.749 348.672 572.477 348.672C570.189 348.672 569.885 346.592 569.885 344.096C569.885 341.696 570.189 339.584 572.477 339.584C574.749 339.584 575.053 341.696 575.053 344.096ZM578.316 349.872H586.012V348.656H580.508C582.572 346.976 585.676 344.528 585.676 341.648C585.676 339.504 584.268 338.224 582.092 338.224C580.012 338.224 578.46 339.504 578.364 341.968H579.772C579.836 340.512 580.604 339.472 582.108 339.472C583.676 339.472 584.236 340.432 584.236 341.712C584.236 344.08 581.356 346.384 578.316 348.832V349.872ZM587.695 344.096C587.695 347.456 588.527 350 591.727 350C594.911 350 595.743 347.456 595.743 344.096C595.743 340.784 594.911 338.256 591.727 338.256C588.527 338.256 587.695 340.784 587.695 344.096ZM594.303 344.096C594.303 346.592 593.999 348.672 591.727 348.672C589.439 348.672 589.135 346.592 589.135 344.096C589.135 341.696 589.439 339.584 591.727 339.584C593.999 339.584 594.303 341.696 594.303 344.096Z" fill="#64748B"/>
<path d="M731.027 349.872H738.723V348.656H733.219C735.283 346.976 738.387 344.528 738.387 341.648C738.387 339.504 736.979 338.224 734.803 338.224C732.723 338.224 731.171 339.504 731.075 341.968H732.483C732.547 340.512 733.315 339.472 734.819 339.472C736.387 339.472 736.947 340.432 736.947 341.712C736.947 344.08 734.067 346.384 731.027 348.832V349.872ZM740.406 344.096C740.406 347.456 741.238 350 744.438 350C747.622 350 748.454 347.456 748.454 344.096C748.454 340.784 747.622 338.256 744.438 338.256C741.238 338.256 740.406 340.784 740.406 344.096ZM747.014 344.096C747.014 346.592 746.71 348.672 744.438 348.672C742.15 348.672 741.846 346.592 741.846 344.096C741.846 341.696 742.15 339.584 744.438 339.584C746.71 339.584 747.014 341.696 747.014 344.096ZM750.277 349.872H757.973V348.656H752.469C754.533 346.976 757.637 344.528 757.637 341.648C757.637 339.504 756.229 338.224 754.053 338.224C751.973 338.224 750.421 339.504 750.325 341.968H751.733C751.797 340.512 752.565 339.472 754.069 339.472C755.637 339.472 756.197 340.432 756.197 341.712C756.197 344.08 753.317 346.384 750.277 348.832V349.872ZM760.808 350H762.28V338.432H759.272V339.76H760.808V350Z" fill="#64748B"/>
<path d="M897.988 349.872H905.684V348.656H900.18C902.244 346.976 905.348 344.528 905.348 341.648C905.348 339.504 903.94 338.224 901.764 338.224C899.684 338.224 898.132 339.504 898.036 341.968H899.444C899.508 340.512 900.276 339.472 901.78 339.472C903.348 339.472 903.908 340.432 903.908 341.712C903.908 344.08 901.028 346.384 897.988 348.832V349.872ZM907.367 344.096C907.367 347.456 908.199 350 911.399 350C914.583 350 915.415 347.456 915.415 344.096C915.415 340.784 914.583 338.256 911.399 338.256C908.199 338.256 907.367 340.784 907.367 344.096ZM913.975 344.096C913.975 346.592 913.671 348.672 911.399 348.672C909.111 348.672 908.807 346.592 908.807 344.096C908.807 341.696 909.111 339.584 911.399 339.584C913.671 339.584 913.975 341.696 913.975 344.096ZM917.238 349.872H924.934V348.656H919.43C921.494 346.976 924.598 344.528 924.598 341.648C924.598 339.504 923.19 338.224 921.014 338.224C918.934 338.224 917.382 339.504 917.286 341.968H918.694C918.758 340.512 919.526 339.472 921.03 339.472C922.598 339.472 923.158 340.432 923.158 341.712C923.158 344.08 920.278 346.384 917.238 348.832V349.872ZM926.441 349.872H934.137V348.656H928.633C930.697 346.976 933.801 344.528 933.801 341.648C933.801 339.504 932.393 338.224 930.217 338.224C928.137 338.224 926.585 339.504 926.489 341.968H927.897C927.961 340.512 928.729 339.472 930.233 339.472C931.801 339.472 932.361 340.432 932.361 341.712C932.361 344.08 929.481 346.384 926.441 348.832V349.872Z" fill="#64748B"/>
<path d="M1066.88 349.872H1074.57V348.656H1069.07C1071.13 346.976 1074.24 344.528 1074.24 341.648C1074.24 339.504 1072.83 338.224 1070.65 338.224C1068.57 338.224 1067.02 339.504 1066.93 341.968H1068.33C1068.4 340.512 1069.17 339.472 1070.67 339.472C1072.24 339.472 1072.8 340.432 1072.8 341.712C1072.8 344.08 1069.92 346.384 1066.88 348.832V349.872ZM1076.26 344.096C1076.26 347.456 1077.09 350 1080.29 350C1083.47 350 1084.31 347.456 1084.31 344.096C1084.31 340.784 1083.47 338.256 1080.29 338.256C1077.09 338.256 1076.26 340.784 1076.26 344.096ZM1082.87 344.096C1082.87 346.592 1082.56 348.672 1080.29 348.672C1078 348.672 1077.7 346.592 1077.7 344.096C1077.7 341.696 1078 339.584 1080.29 339.584C1082.56 339.584 1082.87 341.696 1082.87 344.096ZM1086.13 349.872H1093.82V348.656H1088.32C1090.38 346.976 1093.49 344.528 1093.49 341.648C1093.49 339.504 1092.08 338.224 1089.9 338.224C1087.82 338.224 1086.27 339.504 1086.18 341.968H1087.58C1087.65 340.512 1088.42 339.472 1089.92 339.472C1091.49 339.472 1092.05 340.432 1092.05 341.712C1092.05 344.08 1089.17 346.384 1086.13 348.832V349.872ZM1095.48 341.344H1096.9C1097.04 340.224 1097.86 339.456 1099.22 339.456C1100.61 339.456 1101.35 340.224 1101.35 341.328C1101.35 342.672 1100.31 343.264 1098.37 343.28H1097.99V344.496H1098.36C1100.44 344.496 1101.57 345.12 1101.57 346.752C1101.57 347.936 1100.84 348.848 1099.28 348.848C1097.75 348.848 1096.85 347.904 1096.71 346.672H1095.3C1095.48 348.912 1097.11 350.08 1099.3 350.08C1101.72 350.08 1102.96 348.672 1102.96 346.88C1102.96 345.216 1102.05 344.224 1100.71 343.904V343.824C1101.92 343.552 1102.76 342.512 1102.76 341.184C1102.76 339.52 1101.52 338.208 1099.27 338.208C1097.12 338.208 1095.62 339.36 1095.48 341.344Z" fill="#64748B"/>
</svg>
